<svg xmlns="http://www.w3.org/2000/svg" viewBox="0 0 440 200" font-family="sans-serif">
  <rect x="1" y="1" width="438" height="198" rx="14" fill="#ffffff" stroke="#e2e8f0"/>
  <defs><marker id="ac" markerWidth="8" markerHeight="8" refX="6" refY="3" orient="auto"><path d="M0,0 L6,3 L0,6 z" fill="#64748b"/></marker></defs>
  <text x="220" y="30" text-anchor="middle" font-size="13" font-weight="bold" fill="#334155">AI in Agriculture — စိုက်ခင်းထဲ AI</text>
  <rect x="24" y="70" width="96" height="66" rx="9" fill="#dbeafe" stroke="#2563eb"/>
  <text x="72" y="90" text-anchor="middle" font-size="9.5" font-weight="bold" fill="#1e40af">Sensor + ပုံ</text>
  <text x="72" y="107" text-anchor="middle" font-size="8" fill="#1e40af">အပူ · စို · EC</text>
  <text x="72" y="119" text-anchor="middle" font-size="8" fill="#1e40af">အရွက်ပုံ · ရာသီ</text>
  <text x="72" y="131" text-anchor="middle" font-size="8" fill="#1e40af">ဈေးကွက်</text>
  <rect x="172" y="78" width="96" height="50" rx="10" fill="#ede9fe" stroke="#7c3aed"/>
  <text x="220" y="100" text-anchor="middle" font-size="10" font-weight="bold" fill="#6d28d9">AI Model</text>
  <text x="220" y="116" text-anchor="middle" font-size="8.5" fill="#6d28d9">ခွဲ · ခန့်မှန်း</text>
  <rect x="320" y="56" width="98" height="26" rx="6" fill="#dcfce7" stroke="#16a34a"/>
  <text x="369" y="73" text-anchor="middle" font-size="8.5" fill="#166534">🐛 ရောဂါ စစ်</text>
  <rect x="320" y="88" width="98" height="26" rx="6" fill="#dcfce7" stroke="#16a34a"/>
  <text x="369" y="105" text-anchor="middle" font-size="8.5" fill="#166534">📅 ရိတ်ရက် ခန့်</text>
  <rect x="320" y="120" width="98" height="26" rx="6" fill="#dcfce7" stroke="#16a34a"/>
  <text x="369" y="137" text-anchor="middle" font-size="8.5" fill="#166534">💧 ရေ/ဓာတ်မြေ</text>
  <line x1="120" y1="103" x2="170" y2="103" stroke="#64748b" stroke-width="2" marker-end="url(#ac)"/>
  <line x1="268" y1="95" x2="318" y2="72" stroke="#64748b" stroke-width="2" marker-end="url(#ac)"/>
  <line x1="268" y1="103" x2="318" y2="101" stroke="#64748b" stroke-width="2" marker-end="url(#ac)"/>
  <line x1="268" y1="111" x2="318" y2="130" stroke="#64748b" stroke-width="2" marker-end="url(#ac)"/>
  <text x="220" y="176" text-anchor="middle" font-size="10" fill="#334155">မြန်မာ တောင်သူ — အထွက်တိုး · ကုန်ကျ လျော့ · ဆုံးဖြတ် မြန်</text>
</svg>
