<svg xmlns="http://www.w3.org/2000/svg" viewBox="0 0 440 210" font-family="sans-serif">
  <rect x="1" y="1" width="438" height="208" rx="14" fill="#ffffff" stroke="#e2e8f0"/>
  <defs><marker id="g1" markerWidth="8" markerHeight="8" refX="6" refY="3" orient="auto"><path d="M0,0 L6,3 L0,6 z" fill="#64748b"/></marker></defs>
  <text x="220" y="30" text-anchor="middle" font-size="13" font-weight="bold" fill="#334155">Generative AI — အသစ် ဖန်တီးပေး</text>
  <rect x="30" y="80" width="96" height="52" rx="8" fill="#dbeafe" stroke="#2563eb"/>
  <text x="78" y="102" text-anchor="middle" font-size="10.5" font-weight="bold" fill="#1e40af">Prompt</text>
  <text x="78" y="118" text-anchor="middle" font-size="9" fill="#1e40af">"...ရေးပေး"</text>
  <rect x="162" y="72" width="96" height="68" rx="10" fill="#ede9fe" stroke="#7c3aed"/>
  <text x="210" y="100" text-anchor="middle" font-size="11" font-weight="bold" fill="#6d28d9">Gen Model</text>
  <text x="210" y="118" text-anchor="middle" font-size="9" fill="#6d28d9">သင်ထားတာက</text>
  <text x="210" y="130" text-anchor="middle" font-size="9" fill="#6d28d9">ပုံစံ တီထွင်</text>
  <rect x="300" y="52" width="118" height="26" rx="6" fill="#dcfce7" stroke="#16a34a"/>
  <text x="359" y="69" text-anchor="middle" font-size="9.5" fill="#166534">📝 စာသား</text>
  <rect x="300" y="84" width="118" height="26" rx="6" fill="#fef3c7" stroke="#d97706"/>
  <text x="359" y="101" text-anchor="middle" font-size="9.5" fill="#92400e">🖼 ပုံ</text>
  <rect x="300" y="116" width="118" height="26" rx="6" fill="#fce7f3" stroke="#db2777"/>
  <text x="359" y="133" text-anchor="middle" font-size="9.5" fill="#9d174d">💻 code / 🎵 အသံ</text>
  <line x1="126" y1="106" x2="160" y2="106" stroke="#64748b" stroke-width="2" marker-end="url(#g1)"/>
  <line x1="258" y1="95" x2="298" y2="70" stroke="#64748b" stroke-width="2" marker-end="url(#g1)"/>
  <line x1="258" y1="106" x2="298" y2="99" stroke="#64748b" stroke-width="2" marker-end="url(#g1)"/>
  <line x1="258" y1="118" x2="298" y2="127" stroke="#64748b" stroke-width="2" marker-end="url(#g1)"/>
  <text x="220" y="192" text-anchor="middle" font-size="10" fill="#334155">ခွဲခြားရုံ မဟုတ်တော့ဘဲ — အကြောင်းအရာ အသစ် ထုတ်ပေးနိုင်တဲ့ AI</text>
</svg>
