<svg xmlns="http://www.w3.org/2000/svg" viewBox="0 0 420 240" font-family="sans-serif">
  <rect x="1" y="1" width="418" height="238" rx="14" fill="#ffffff" stroke="#e2e8f0"/>
  <path d="M50,70 C120,190 180,205 210,205 C240,205 300,190 370,60" fill="none" stroke="#64748b" stroke-width="2.5"/>
  <g fill="#dc2626">
    <circle cx="85" cy="118" r="7"/><circle cx="125" cy="165" r="7"/><circle cx="160" cy="192" r="7"/><circle cx="195" cy="203" r="7"/>
  </g>
  <circle cx="212" cy="205" r="8" fill="#16a34a"/>
  <defs><marker id="p" markerWidth="8" markerHeight="8" refX="6" refY="3" orient="auto"><path d="M0,0 L6,3 L0,6 z" fill="#dc2626"/></marker></defs>
  <path d="M92,124 L118,158" stroke="#dc2626" stroke-width="1.5" marker-end="url(#p)" fill="none"/>
  <path d="M132,171 L153,186" stroke="#dc2626" stroke-width="1.5" marker-end="url(#p)" fill="none"/>
  <path d="M167,196 L188,201" stroke="#dc2626" stroke-width="1.5" marker-end="url(#p)" fill="none"/>
  <text x="212" y="228" text-anchor="middle" font-size="10" fill="#166534" font-weight="bold">အနိမ့်ဆုံး (loss အနည်းဆုံး)</text>
  <text x="90" y="95" font-size="10" fill="#dc2626" font-weight="bold">စမှတ်</text>
  <text x="320" y="120" font-size="10" fill="#64748b">Loss ကုန်း</text>
  <text x="210" y="32" text-anchor="middle" font-size="13" font-weight="bold" fill="#334155">Gradient Descent — တောင်ကုန်းဆင်း</text>
  <text x="210" y="50" text-anchor="middle" font-size="9.5" fill="#64748b">လျှောဆုံးဘက် တစ်လှမ်းချင်း ဆင်း — learning rate = ခြေလှမ်းအရွယ်</text>
</svg>
