<svg xmlns="http://www.w3.org/2000/svg" viewBox="0 0 440 200" font-family="sans-serif">
  <rect x="1" y="1" width="438" height="198" rx="14" fill="#ffffff" stroke="#e2e8f0"/>
  <defs><marker id="n" markerWidth="8" markerHeight="8" refX="6" refY="3" orient="auto"><path d="M0,0 L6,3 L0,6 z" fill="#64748b"/></marker></defs>
  <rect x="24" y="75" width="84" height="52" rx="8" fill="#dbeafe" stroke="#2563eb"/>
  <text x="66" y="98" text-anchor="middle" font-size="11" font-weight="bold" fill="#1e40af">Data</text>
  <text x="66" y="113" text-anchor="middle" font-size="9" fill="#1e40af">အတိတ် မှတ်တမ်း</text>
  <rect x="132" y="75" width="84" height="52" rx="8" fill="#fef3c7" stroke="#d97706"/>
  <text x="174" y="98" text-anchor="middle" font-size="11" font-weight="bold" fill="#92400e">Training</text>
  <text x="174" y="113" text-anchor="middle" font-size="9" fill="#92400e">ပုံစံ ရှာ/သင်</text>
  <rect x="240" y="75" width="84" height="52" rx="8" fill="#dcfce7" stroke="#16a34a"/>
  <text x="282" y="98" text-anchor="middle" font-size="11" font-weight="bold" fill="#166534">Model</text>
  <text x="282" y="113" text-anchor="middle" font-size="9" fill="#166534">သင်ပြီး ဉာဏ်</text>
  <rect x="348" y="75" width="72" height="52" rx="8" fill="#fce7f3" stroke="#db2777"/>
  <text x="384" y="98" text-anchor="middle" font-size="11" font-weight="bold" fill="#9d174d">Predict</text>
  <text x="384" y="113" text-anchor="middle" font-size="9" fill="#9d174d">အသစ် ခန့်မှန်း</text>
  <line x1="108" y1="101" x2="128" y2="101" stroke="#64748b" stroke-width="2" marker-end="url(#n)"/>
  <line x1="216" y1="101" x2="236" y2="101" stroke="#64748b" stroke-width="2" marker-end="url(#n)"/>
  <line x1="324" y1="101" x2="344" y2="101" stroke="#64748b" stroke-width="2" marker-end="url(#n)"/>
  <text x="220" y="160" text-anchor="middle" font-size="10.5" fill="#334155">Rule ရေးမပေးဘဲ — data ကနေ ကိုယ်တိုင် ပုံစံသင်ယူခြင်း</text>
  <text x="220" y="32" text-anchor="middle" font-size="13" font-weight="bold" fill="#334155">Machine Learning စက်ဝန်း</text>
</svg>
