<svg xmlns="http://www.w3.org/2000/svg" viewBox="0 0 420 250" font-family="sans-serif">
  <rect x="1" y="1" width="418" height="248" rx="14" fill="#ffffff" stroke="#e2e8f0"/>
  <g stroke="#cbd5e1" stroke-width="1">
    <line x1="100" y1="80" x2="210" y2="65"/><line x1="100" y1="80" x2="210" y2="125"/><line x1="100" y1="80" x2="210" y2="185"/>
    <line x1="100" y1="130" x2="210" y2="65"/><line x1="100" y1="130" x2="210" y2="125"/><line x1="100" y1="130" x2="210" y2="185"/>
    <line x1="100" y1="180" x2="210" y2="65"/><line x1="100" y1="180" x2="210" y2="125"/><line x1="100" y1="180" x2="210" y2="185"/>
    <line x1="210" y1="65" x2="320" y2="125"/><line x1="210" y1="125" x2="320" y2="125"/><line x1="210" y1="185" x2="320" y2="125"/>
  </g>
  <g fill="#dbeafe" stroke="#2563eb" stroke-width="2">
    <circle cx="100" cy="80" r="16"/><circle cx="100" cy="130" r="16"/><circle cx="100" cy="180" r="16"/>
  </g>
  <g fill="#fef3c7" stroke="#d97706" stroke-width="2">
    <circle cx="210" cy="65" r="16"/><circle cx="210" cy="125" r="16"/><circle cx="210" cy="185" r="16"/>
  </g>
  <circle cx="320" cy="125" r="16" fill="#dcfce7" stroke="#16a34a" stroke-width="2"/>
  <text x="100" y="215" text-anchor="middle" font-size="10.5" fill="#1e40af" font-weight="bold">Input</text>
  <text x="100" y="228" text-anchor="middle" font-size="9" fill="#64748b">အပူ, စိုထိုင်း, EC</text>
  <text x="210" y="222" text-anchor="middle" font-size="10.5" fill="#92400e" font-weight="bold">Hidden layer</text>
  <text x="320" y="160" text-anchor="middle" font-size="10.5" fill="#166534" font-weight="bold">Output</text>
  <text x="320" y="173" text-anchor="middle" font-size="9" fill="#64748b">ရိတ်ရက် ခန့်မှန်း</text>
  <text x="210" y="32" text-anchor="middle" font-size="13" font-weight="bold" fill="#334155">Neural Network — အလွှာသုံးလွှာ</text>
</svg>
