<svg xmlns="http://www.w3.org/2000/svg" viewBox="0 0 440 200" font-family="sans-serif">
  <rect x="1" y="1" width="438" height="198" rx="14" fill="#ffffff" stroke="#e2e8f0"/>
  <defs><marker id="rl" markerWidth="8" markerHeight="8" refX="6" refY="3" orient="auto"><path d="M0,0 L6,3 L0,6 z" fill="#64748b"/></marker></defs>
  <text x="220" y="30" text-anchor="middle" font-size="13" font-weight="bold" fill="#334155">RNN / LSTM — အစဉ်လိုက် + မှတ်ဉာဏ်</text>
  <g>
    <rect x="34" y="88" width="66" height="46" rx="8" fill="#dbeafe" stroke="#2563eb"/>
    <text x="67" y="108" text-anchor="middle" font-size="9" fill="#1e40af">နာရီ 1</text>
    <text x="67" y="123" text-anchor="middle" font-size="9" fill="#1e40af">28°</text>
    <rect x="128" y="88" width="66" height="46" rx="8" fill="#dbeafe" stroke="#2563eb"/>
    <text x="161" y="108" text-anchor="middle" font-size="9" fill="#1e40af">နာရီ 2</text>
    <text x="161" y="123" text-anchor="middle" font-size="9" fill="#1e40af">29°</text>
    <rect x="222" y="88" width="66" height="46" rx="8" fill="#dbeafe" stroke="#2563eb"/>
    <text x="255" y="108" text-anchor="middle" font-size="9" fill="#1e40af">... 24</text>
    <text x="255" y="123" text-anchor="middle" font-size="9" fill="#1e40af">31°</text>
    <rect x="322" y="86" width="86" height="50" rx="9" fill="#dcfce7" stroke="#16a34a"/>
    <text x="365" y="106" text-anchor="middle" font-size="9.5" font-weight="bold" fill="#166534">ခန့်မှန်း</text>
    <text x="365" y="122" text-anchor="middle" font-size="9" fill="#166534">နာရီ 25 → 32°</text>
  </g>
  <path d="M100 100 L126 100" stroke="#d97706" stroke-width="2" marker-end="url(#rl)"/>
  <path d="M194 100 L220 100" stroke="#d97706" stroke-width="2" marker-end="url(#rl)"/>
  <path d="M288 108 L320 108" stroke="#64748b" stroke-width="2" marker-end="url(#rl)"/>
  <text x="147" y="76" text-anchor="middle" font-size="8" fill="#92400e">မှတ်ဉာဏ် သယ်</text>
  <text x="220" y="164" text-anchor="middle" font-size="10" fill="#334155">အရင်တန်ဖိုးများ မှတ်ထား၍ နောက်တစ်ဆင့် ခန့်မှန်း</text>
  <text x="220" y="184" text-anchor="middle" font-size="9.5" fill="#64748b">LSTM gate — အရေးကြီးတာ ကြာကြာမှတ်၊ မလိုတာ မေ့</text>
</svg>
