<svg xmlns="http://www.w3.org/2000/svg" viewBox="0 0 420 240" font-family="sans-serif">
  <rect x="1" y="1" width="418" height="238" rx="14" fill="#ffffff" stroke="#e2e8f0"/>
  <defs><marker id="e" markerWidth="8" markerHeight="8" refX="6" refY="3" orient="auto"><path d="M0,0 L6,3 L0,6 z" fill="#334155"/></marker>
  <marker id="f" markerWidth="8" markerHeight="8" refX="6" refY="3" orient="auto"><path d="M0,0 L6,3 L0,6 z" fill="#16a34a"/></marker></defs>
  <line x1="50" y1="200" x2="180" y2="200" stroke="#334155" stroke-width="2" marker-end="url(#e)"/>
  <line x1="50" y1="200" x2="50" y2="80" stroke="#334155" stroke-width="2" marker-end="url(#e)"/>
  <text x="185" y="205" font-size="12" fill="#334155" font-weight="bold">X (world)</text>
  <text x="42" y="72" font-size="12" fill="#334155" font-weight="bold">Y</text>
  <rect x="235" y="105" width="70" height="50" rx="8" transform="rotate(-30 270 130)" fill="#f1f5f9" stroke="#64748b" stroke-width="2"/>
  <line x1="270" y1="130" x2="340" y2="90" stroke="#16a34a" stroke-width="2" marker-end="url(#f)"/>
  <line x1="270" y1="130" x2="300" y2="185" stroke="#16a34a" stroke-width="2" marker-end="url(#f)" opacity="0.6"/>
  <text x="345" y="88" font-size="11" fill="#166534" font-weight="bold">x (robot)</text>
  <text x="303" y="196" font-size="11" fill="#166534" opacity="0.8">y</text>
  <line x1="270" y1="130" x2="340" y2="130" stroke="#94a3b8" stroke-dasharray="4"/>
  <path d="M315,130 A45,45 0 0 0 308,108" fill="none" stroke="#d97706" stroke-width="2"/>
  <text x="322" y="118" font-size="12" fill="#d97706" font-weight="bold">θ</text>
  <line x1="50" y1="200" x2="270" y2="130" stroke="#2563eb" stroke-width="1.5" stroke-dasharray="6"/>
  <text x="150" y="158" font-size="11" fill="#2563eb">(x, y, θ) = robot pose</text>
  <text x="210" y="32" text-anchor="middle" font-size="13" font-weight="bold" fill="#334155">World Frame နဲ့ Robot Frame</text>
</svg>
