<svg xmlns="http://www.w3.org/2000/svg" viewBox="0 0 440 190" font-family="sans-serif">
  <rect x="1" y="1" width="438" height="188" rx="14" fill="#ffffff" stroke="#e2e8f0"/>
  <defs><marker id="cvr" markerWidth="8" markerHeight="8" refX="6" refY="3" orient="auto"><path d="M0,0 L6,3 L0,6 z" fill="#64748b"/></marker></defs>
  <text x="220" y="30" text-anchor="middle" font-size="13" font-weight="bold" fill="#334155">Computer Vision — robot က မြင်</text>
  <rect x="30" y="70" width="90" height="66" rx="8" fill="#f0fdf4" stroke="#16a34a"/>
  <circle cx="60" cy="98" r="10" fill="#4ade80"/><rect x="46" y="112" width="52" height="14" rx="3" fill="#22c55e"/>
  <text x="75" y="150" text-anchor="middle" font-size="8" fill="#166534">📷 camera ပုံ</text>
  <line x1="120" y1="103" x2="152" y2="103" stroke="#64748b" stroke-width="2" marker-end="url(#cvr)"/>
  <rect x="156" y="78" width="96" height="50" rx="9" fill="#ede9fe" stroke="#7c3aed"/>
  <text x="204" y="99" text-anchor="middle" font-size="9.5" font-weight="bold" fill="#6d28d9">CNN model</text>
  <text x="204" y="114" text-anchor="middle" font-size="8" fill="#6d28d9">ပုံ → object</text>
  <line x1="252" y1="103" x2="284" y2="103" stroke="#64748b" stroke-width="2" marker-end="url(#cvr)"/>
  <rect x="288" y="72" width="124" height="62" rx="8" fill="#f8fafc" stroke="#cbd5e1"/>
  <rect x="306" y="88" width="40" height="34" fill="none" stroke="#dc2626" stroke-width="2"/>
  <text x="326" y="84" text-anchor="middle" font-size="7.5" fill="#dc2626">🍅 90%</text>
  <rect x="356" y="94" width="34" height="26" fill="none" stroke="#16a34a" stroke-width="2"/>
  <text x="373" y="90" text-anchor="middle" font-size="7.5" fill="#166534">🌿</text>
  <text x="220" y="164" text-anchor="middle" font-size="10" fill="#334155">object detect — အသီး/ပေါင်းပင် နေရာ ရှာ → robot လက် ဆွဲ</text>
</svg>
