<svg xmlns="http://www.w3.org/2000/svg" viewBox="0 0 420 240" font-family="sans-serif">
  <rect x="1" y="1" width="418" height="238" rx="14" fill="#ffffff" stroke="#e2e8f0"/>
  <g transform="translate(130,125)">
    <circle r="62" fill="#f1f5f9" stroke="#64748b" stroke-width="2"/>
    <g fill="#334155">
      <rect x="-6" y="-62" width="12" height="18"/><rect x="-6" y="44" width="12" height="18"/>
      <rect x="44" y="-6" width="18" height="12"/><rect x="-62" y="-6" width="18" height="12"/>
      <rect x="28" y="-52" width="12" height="18" transform="rotate(45)"/><rect x="28" y="-52" width="12" height="18" transform="rotate(135)"/>
      <rect x="28" y="-52" width="12" height="18" transform="rotate(225)"/><rect x="28" y="-52" width="12" height="18" transform="rotate(315)"/>
    </g>
    <circle r="10" fill="#94a3b8"/>
  </g>
  <circle cx="228" cy="125" r="8" fill="#facc15" stroke="#d97706"/>
  <text x="228" y="105" text-anchor="middle" font-size="10" fill="#92400e">LED / sensor</text>
  <g transform="translate(265,90)" stroke="#16a34a" stroke-width="2.5" fill="none">
    <path d="M0,50 h14 v-28 h16 v28 h16 v-28 h16 v28 h16 v-28 h16 v28 h14"/>
  </g>
  <text x="320" y="165" text-anchor="middle" font-size="10" fill="#166534" font-weight="bold">pulse signal</text>
  <text x="210" y="222" text-anchor="middle" font-size="10.5" fill="#334155">အပေါက်တစ်ခုဖြတ်တိုင်း pulse ၁ ခု → ရေတွက်ရင် လှည့်ထောင့်/အကွာအဝေး သိ</text>
  <text x="210" y="32" text-anchor="middle" font-size="13" font-weight="bold" fill="#334155">Optical Encoder</text>
</svg>
