<svg xmlns="http://www.w3.org/2000/svg" viewBox="0 0 420 260" font-family="sans-serif">
  <rect x="1" y="1" width="418" height="258" rx="14" fill="#ffffff" stroke="#e2e8f0"/>
  <line x1="110" y1="60" x2="310" y2="60" stroke="#334155" stroke-width="2"/>
  <line x1="110" y1="210" x2="310" y2="210" stroke="#334155" stroke-width="2"/>
  <line x1="110" y1="60" x2="110" y2="100" stroke="#334155" stroke-width="2"/>
  <line x1="310" y1="60" x2="310" y2="100" stroke="#334155" stroke-width="2"/>
  <line x1="110" y1="170" x2="110" y2="210" stroke="#334155" stroke-width="2"/>
  <line x1="310" y1="170" x2="310" y2="210" stroke="#334155" stroke-width="2"/>
  <line x1="110" y1="135" x2="180" y2="135" stroke="#334155" stroke-width="2"/>
  <line x1="240" y1="135" x2="310" y2="135" stroke="#334155" stroke-width="2"/>
  <rect x="96" y="100" width="28" height="26" rx="5" fill="#dcfce7" stroke="#16a34a"/><text x="110" y="117" text-anchor="middle" font-size="10" fill="#166534">S1</text>
  <rect x="296" y="100" width="28" height="26" rx="5" fill="#fee2e2" stroke="#dc2626"/><text x="310" y="117" text-anchor="middle" font-size="10" fill="#dc2626">S2</text>
  <rect x="96" y="144" width="28" height="26" rx="5" fill="#fee2e2" stroke="#dc2626"/><text x="110" y="161" text-anchor="middle" font-size="10" fill="#dc2626">S3</text>
  <rect x="296" y="144" width="28" height="26" rx="5" fill="#dcfce7" stroke="#16a34a"/><text x="310" y="161" text-anchor="middle" font-size="10" fill="#166534">S4</text>
  <circle cx="210" cy="135" r="22" fill="#dbeafe" stroke="#2563eb" stroke-width="2"/>
  <text x="210" y="140" text-anchor="middle" font-size="13" font-weight="bold" fill="#1e40af">M</text>
  <text x="60" y="65" font-size="11" fill="#334155" font-weight="bold">+V</text>
  <text x="60" y="215" font-size="11" fill="#334155" font-weight="bold">GND</text>
  <defs><marker id="g" markerWidth="8" markerHeight="8" refX="6" refY="3" orient="auto"><path d="M0,0 L6,3 L0,6 z" fill="#16a34a"/></marker></defs>
  <path d="M110,80 L110,95 M124,113 L165,132 M232,140 L296,152 M310,175 L310,205" stroke="#16a34a" stroke-width="2.5" fill="none" opacity="0.85"/>
  <text x="210" y="240" text-anchor="middle" font-size="10.5" fill="#334155">S1+S4 ဖွင့် → ရှေ့ · S2+S3 ဖွင့် → နောက် (လျှပ်စီး ဦးတည်ချက် ပြောင်း)</text>
  <text x="210" y="34" text-anchor="middle" font-size="13" font-weight="bold" fill="#334155">H-Bridge — Motor အလှည့် ထိန်း</text>
</svg>
