<svg xmlns="http://www.w3.org/2000/svg" viewBox="0 0 440 200" font-family="sans-serif">
  <rect x="1" y="1" width="438" height="198" rx="14" fill="#ffffff" stroke="#e2e8f0"/>
  <defs><marker id="d" markerWidth="8" markerHeight="8" refX="6" refY="3" orient="auto"><path d="M0,0 L6,3 L0,6 z" fill="#64748b"/></marker></defs>
  <text x="20" y="80" font-size="11" fill="#334155">Target</text>
  <text x="20" y="93" font-size="10" fill="#64748b">ပန်းတိုင်</text>
  <circle cx="95" cy="85" r="16" fill="#fee2e2" stroke="#dc2626"/>
  <text x="95" y="90" text-anchor="middle" font-size="13" fill="#dc2626">Σ</text>
  <rect x="140" y="62" width="90" height="46" rx="8" fill="#fef3c7" stroke="#d97706"/>
  <text x="185" y="82" text-anchor="middle" font-size="12" font-weight="bold" fill="#92400e">PID</text>
  <text x="185" y="98" text-anchor="middle" font-size="9" fill="#92400e">Kp·e + Ki·∫e + Kd·de</text>
  <rect x="260" y="62" width="80" height="46" rx="8" fill="#dcfce7" stroke="#16a34a"/>
  <text x="300" y="82" text-anchor="middle" font-size="12" font-weight="bold" fill="#166534">Motor</text>
  <text x="300" y="97" text-anchor="middle" font-size="9" fill="#166534">Actuator</text>
  <line x1="55" y1="85" x2="75" y2="85" stroke="#64748b" stroke-width="2" marker-end="url(#d)"/>
  <line x1="111" y1="85" x2="136" y2="85" stroke="#64748b" stroke-width="2" marker-end="url(#d)"/>
  <text x="123" y="76" text-anchor="middle" font-size="10" fill="#dc2626">error</text>
  <line x1="230" y1="85" x2="256" y2="85" stroke="#64748b" stroke-width="2" marker-end="url(#d)"/>
  <line x1="340" y1="85" x2="395" y2="85" stroke="#64748b" stroke-width="2" marker-end="url(#d)"/>
  <text x="400" y="89" font-size="11" fill="#334155">Output</text>
  <path d="M370,85 L370,150 L95,150 L95,105" fill="none" stroke="#2563eb" stroke-width="2" marker-end="url(#d)"/>
  <rect x="200" y="138" width="70" height="24" rx="6" fill="#dbeafe" stroke="#2563eb"/>
  <text x="235" y="154" text-anchor="middle" font-size="10" fill="#1e40af">Sensor</text>
  <text x="235" y="30" text-anchor="middle" font-size="13" font-weight="bold" fill="#334155">Closed-Loop (Feedback) Control</text>
</svg>
