<svg xmlns="http://www.w3.org/2000/svg" viewBox="0 0 420 260" font-family="sans-serif">
  <rect x="1" y="1" width="418" height="258" rx="14" fill="#ffffff" stroke="#e2e8f0"/>
  <rect x="150" y="40" width="120" height="80" rx="10" fill="#f1f5f9" stroke="#64748b" stroke-width="2"/>
  <circle cx="185" cy="70" r="10" fill="#2563eb"/>
  <circle cx="235" cy="70" r="10" fill="#2563eb"/>
  <rect x="180" y="95" width="60" height="10" rx="5" fill="#94a3b8"/>
  <rect x="160" y="130" width="100" height="70" rx="8" fill="#f8fafc" stroke="#64748b" stroke-width="2"/>
  <rect x="178" y="145" width="64" height="26" rx="4" fill="#fef3c7" stroke="#d97706"/>
  <text x="210" y="162" text-anchor="middle" font-size="10" fill="#92400e">MCU</text>
  <rect x="178" y="176" width="64" height="16" rx="4" fill="#dcfce7" stroke="#16a34a"/>
  <text x="210" y="188" text-anchor="middle" font-size="9" fill="#166534">Battery</text>
  <circle cx="170" cy="215" r="16" fill="#334155"/>
  <circle cx="250" cy="215" r="16" fill="#334155"/>
  <circle cx="170" cy="215" r="6" fill="#94a3b8"/>
  <circle cx="250" cy="215" r="6" fill="#94a3b8"/>
  <line x1="150" y1="70" x2="70" y2="55" stroke="#94a3b8" stroke-dasharray="3"/>
  <text x="65" y="50" text-anchor="end" font-size="11" fill="#1e40af" font-weight="bold">Sensor (မျက်စိ)</text>
  <line x1="178" y1="158" x2="70" y2="145" stroke="#94a3b8" stroke-dasharray="3"/>
  <text x="65" y="142" text-anchor="end" font-size="11" fill="#92400e" font-weight="bold">Controller (ဦးနှောက်)</text>
  <line x1="178" y1="184" x2="70" y2="184" stroke="#94a3b8" stroke-dasharray="3"/>
  <text x="65" y="182" text-anchor="end" font-size="11" fill="#166534" font-weight="bold">Power (စွမ်းအင်)</text>
  <line x1="250" y1="215" x2="350" y2="215" stroke="#94a3b8" stroke-dasharray="3"/>
  <text x="352" y="213" font-size="11" fill="#334155" font-weight="bold">Actuator</text>
  <text x="352" y="227" font-size="10" fill="#64748b">(ကြွက်သား)</text>
</svg>
