<svg xmlns="http://www.w3.org/2000/svg" viewBox="0 0 420 220" font-family="sans-serif">
  <rect x="1" y="1" width="418" height="218" rx="14" fill="#ffffff" stroke="#e2e8f0"/>
  <rect x="40" y="90" width="90" height="60" rx="10" fill="#f1f5f9" stroke="#64748b" stroke-width="2"/>
  <circle cx="118" cy="108" r="7" fill="#2563eb"/>
  <circle cx="118" cy="132" r="7" fill="#16a34a"/>
  <path d="M130,120 L330,70 L330,170 Z" fill="#dbeafe" opacity="0.45"/>
  <path d="M150,120 A20,20 0 0 1 150,121" stroke="#2563eb" fill="none"/>
  <path d="M160,102 A32,32 0 0 1 160,138" stroke="#2563eb" stroke-width="2" fill="none"/>
  <path d="M185,92 A52,52 0 0 1 185,148" stroke="#2563eb" stroke-width="2" fill="none" opacity="0.7"/>
  <path d="M212,82 A74,74 0 0 1 212,158" stroke="#2563eb" stroke-width="2" fill="none" opacity="0.45"/>
  <rect x="330" y="60" width="18" height="120" rx="4" fill="#78716c"/>
  <text x="339" y="52" text-anchor="middle" font-size="11" fill="#78716c" font-weight="bold">အတားအဆီး</text>
  <line x1="130" y1="178" x2="330" y2="178" stroke="#dc2626" stroke-width="1.5" stroke-dasharray="5"/>
  <text x="230" y="196" text-anchor="middle" font-size="11" fill="#dc2626">d = (ကြာချိန် × အသံအမြန်နှုန်း) / 2</text>
  <text x="210" y="32" text-anchor="middle" font-size="13" font-weight="bold" fill="#334155">Ultrasonic Sensor — ပဲ့တင်သံနဲ့ အကွာအဝေးတိုင်း</text>
</svg>
