<svg xmlns="http://www.w3.org/2000/svg" viewBox="0 0 440 200" font-family="sans-serif">
  <rect x="1" y="1" width="438" height="198" rx="14" fill="#ffffff" stroke="#e2e8f0"/>
  <text x="220" y="30" text-anchor="middle" font-size="13" font-weight="bold" fill="#334155">Project — Data / Audio Visualizer</text>
  <rect x="30" y="50" width="380" height="100" rx="8" fill="#0f172a"/>
  <g fill="#22d3ee">
    <rect x="50" y="120" width="14" height="24"/><rect x="70" y="96" width="14" height="48"/><rect x="90" y="70" width="14" height="74"/><rect x="110" y="104" width="14" height="40"/><rect x="130" y="86" width="14" height="58"/><rect x="150" y="118" width="14" height="26"/><rect x="170" y="78" width="14" height="66"/><rect x="190" y="100" width="14" height="44"/>
  </g>
  <path d="M230 100 q15 -30 30 0 q15 30 30 0 q15 -24 30 0 q15 24 30 0 q15 -18 30 0" fill="none" stroke="#4ade80" stroke-width="2"/>
  <g fill="#f59e0b"><circle cx="250" cy="130" r="3"/><circle cx="300" cy="80" r="3"/><circle cx="360" cy="120" r="3"/></g>
  <text x="220" y="176" text-anchor="middle" font-size="9.5" fill="#334155">gradient + transform + particle + animation ပေါင်းစပ်</text>
  <text x="220" y="192" text-anchor="middle" font-size="8.5" fill="#64748b">Web Audio frequency data → canvas bars — real-time</text>
</svg>
