<svg xmlns="http://www.w3.org/2000/svg" viewBox="0 0 440 200" font-family="sans-serif">
  <rect x="1" y="1" width="438" height="198" rx="14" fill="#ffffff" stroke="#e2e8f0"/>
  <defs><marker id="ss" markerWidth="8" markerHeight="8" refX="6" refY="3" orient="auto"><path d="M0,0 L6,3 L0,6 z" fill="#64748b"/></marker></defs>
  <text x="220" y="30" text-anchor="middle" font-size="13" font-weight="bold" fill="#334155">Sprite Animation — sheet ကနေ frame</text>
  <g>
    <rect x="30" y="60" width="160" height="44" fill="#f8fafc" stroke="#cbd5e1"/>
    <line x1="70" y1="60" x2="70" y2="104" stroke="#cbd5e1"/><line x1="110" y1="60" x2="110" y2="104" stroke="#cbd5e1"/><line x1="150" y1="60" x2="150" y2="104" stroke="#cbd5e1"/>
    <text x="50" y="86" text-anchor="middle" font-size="14">🚶</text><text x="90" y="86" text-anchor="middle" font-size="14">🏃</text><text x="130" y="86" text-anchor="middle" font-size="14">🚶</text><text x="170" y="86" text-anchor="middle" font-size="14">🏃</text>
    <rect x="70" y="60" width="40" height="44" fill="none" stroke="#dc2626" stroke-width="2"/>
  </g>
  <text x="110" y="120" text-anchor="middle" font-size="8.5" fill="#334155">sprite sheet — frame ၄ ခု</text>
  <line x1="192" y1="82" x2="240" y2="82" stroke="#64748b" stroke-width="2" marker-end="url(#ss)"/>
  <rect x="250" y="56" width="70" height="70" rx="6" fill="#eff6ff" stroke="#2563eb"/>
  <text x="285" y="98" text-anchor="middle" font-size="26">🏃</text>
  <text x="285" y="140" text-anchor="middle" font-size="8" fill="#1e40af">frame တစ်ချက်စီ ပြ</text>
  <text x="220" y="166" text-anchor="middle" font-size="9" font-family="monospace" fill="#334155">drawImage(sheet, fx*w, 0, w, h, x, y, w, h)</text>
  <text x="220" y="186" text-anchor="middle" font-size="9" fill="#64748b">frame index ကို အချိန်နဲ့ တိုး → လှုပ်ရှားပုံ</text>
</svg>
