<svg xmlns="http://www.w3.org/2000/svg" viewBox="0 0 440 190" font-family="sans-serif">
  <rect x="1" y="1" width="438" height="188" rx="14" fill="#ffffff" stroke="#e2e8f0"/>
  <text x="220" y="30" text-anchor="middle" font-size="13" font-weight="bold" fill="#334155">Arduino — စတင်သူ microcontroller board</text>
  <rect x="130" y="60" width="180" height="80" rx="8" fill="#0d9488" stroke="#0f766e" stroke-width="2"/>
  <g fill="#334155"><rect x="140" y="54" width="8" height="8"/><rect x="158" y="54" width="8" height="8"/><rect x="176" y="54" width="8" height="8"/><rect x="194" y="54" width="8" height="8"/><rect x="212" y="54" width="8" height="8"/><rect x="230" y="54" width="8" height="8"/></g>
  <rect x="200" y="88" width="40" height="30" rx="3" fill="#1f2937"/>
  <text x="220" y="107" text-anchor="middle" font-size="9" fill="#fff">MCU</text>
  <rect x="126" y="92" width="10" height="20" rx="2" fill="#111"/>
  <text x="118" y="106" text-anchor="end" font-size="8" fill="#334155">USB</text>
  <g font-size="9" fill="#334155">
    <text x="330" y="72">💻 USB နဲ့ program</text>
    <text x="330" y="96">📌 digital + analog pin</text>
    <text x="330" y="120">🔰 လွယ် · community ကြီး</text>
  </g>
  <text x="220" y="164" text-anchor="middle" font-size="9.5" fill="#334155">C/C++ ရေး → USB ကနေ upload → circuit ထိန်း</text>
  <text x="220" y="182" text-anchor="middle" font-size="9" fill="#64748b">Uno/Nano — သင်ယူဖို့ အကောင်းဆုံး board</text>
</svg>
