<svg xmlns="http://www.w3.org/2000/svg" viewBox="0 0 440 190" font-family="sans-serif">
  <rect x="1" y="1" width="438" height="188" rx="14" fill="#ffffff" stroke="#e2e8f0"/>
  <defs><marker id="gp" markerWidth="8" markerHeight="8" refX="6" refY="3" orient="auto"><path d="M0,0 L6,3 L0,6 z" fill="#64748b"/></marker></defs>
  <text x="220" y="30" text-anchor="middle" font-size="13" font-weight="bold" fill="#334155">GPIO — pin တွေနဲ့ ပြင်ပ ဆက်</text>
  <rect x="170" y="60" width="100" height="76" rx="6" fill="#334155"/>
  <text x="220" y="102" text-anchor="middle" font-size="10" font-weight="bold" fill="#fff">MCU</text>
  <rect x="30" y="70" width="96" height="26" rx="6" fill="#dbeafe" stroke="#2563eb"/>
  <text x="78" y="87" text-anchor="middle" font-size="9" fill="#1e40af">🔘 ခလုတ် (INPUT)</text>
  <rect x="30" y="104" width="96" height="26" rx="6" fill="#dbeafe" stroke="#2563eb"/>
  <text x="78" y="121" text-anchor="middle" font-size="9" fill="#1e40af">🌡 sensor (INPUT)</text>
  <line x1="126" y1="83" x2="168" y2="78" stroke="#64748b" stroke-width="2" marker-end="url(#gp)"/>
  <line x1="126" y1="117" x2="168" y2="96" stroke="#64748b" stroke-width="2" marker-end="url(#gp)"/>
  <rect x="314" y="70" width="96" height="26" rx="6" fill="#dcfce7" stroke="#16a34a"/>
  <text x="362" y="87" text-anchor="middle" font-size="9" fill="#166534">💡 LED (OUTPUT)</text>
  <rect x="314" y="104" width="96" height="26" rx="6" fill="#dcfce7" stroke="#16a34a"/>
  <text x="362" y="121" text-anchor="middle" font-size="9" fill="#166534">⚙ motor (OUTPUT)</text>
  <line x1="270" y1="78" x2="312" y2="83" stroke="#64748b" stroke-width="2" marker-end="url(#gp)"/>
  <line x1="270" y1="96" x2="312" y2="117" stroke="#64748b" stroke-width="2" marker-end="url(#gp)"/>
  <text x="220" y="166" text-anchor="middle" font-size="10" fill="#334155">Input pin = ဖတ် · Output pin = ထိန်း — code ထဲ သတ်မှတ်</text>
</svg>
