<svg xmlns="http://www.w3.org/2000/svg" viewBox="0 0 440 210" font-family="sans-serif">
  <rect x="1" y="1" width="438" height="208" rx="14" fill="#ffffff" stroke="#e2e8f0"/>
  <defs><marker id="m" markerWidth="8" markerHeight="8" refX="6" refY="3" orient="auto"><path d="M0,0 L6,3 L0,6 z" fill="#64748b"/></marker></defs>
  <rect x="20" y="80" width="72" height="50" rx="8" fill="#dcfce7" stroke="#16a34a"/>
  <text x="56" y="102" text-anchor="middle" font-size="10.5" font-weight="bold" fill="#166534">Sensor</text>
  <text x="56" y="117" text-anchor="middle" font-size="9" fill="#166534">အစိုဓာတ်/အပူ</text>
  <rect x="112" y="80" width="72" height="50" rx="8" fill="#fef3c7" stroke="#d97706"/>
  <text x="148" y="102" text-anchor="middle" font-size="10.5" font-weight="bold" fill="#92400e">ESP32</text>
  <text x="148" y="117" text-anchor="middle" font-size="9" fill="#92400e">MCU + WiFi</text>
  <rect x="204" y="80" width="72" height="50" rx="8" fill="#e0e7ff" stroke="#6366f1"/>
  <text x="240" y="102" text-anchor="middle" font-size="10.5" font-weight="bold" fill="#4338ca">MQTT</text>
  <text x="240" y="117" text-anchor="middle" font-size="9" fill="#4338ca">Broker</text>
  <rect x="296" y="80" width="60" height="50" rx="8" fill="#dbeafe" stroke="#2563eb"/>
  <text x="326" y="102" text-anchor="middle" font-size="10.5" font-weight="bold" fill="#1e40af">Cloud</text>
  <text x="326" y="117" text-anchor="middle" font-size="9" fill="#1e40af">DB + logic</text>
  <rect x="376" y="80" width="48" height="50" rx="8" fill="#fce7f3" stroke="#db2777"/>
  <text x="400" y="102" text-anchor="middle" font-size="10.5" font-weight="bold" fill="#9d174d">App</text>
  <text x="400" y="117" text-anchor="middle" font-size="9" fill="#9d174d">ဖုန်း</text>
  <line x1="92" y1="105" x2="108" y2="105" stroke="#64748b" stroke-width="2" marker-end="url(#m)"/>
  <line x1="184" y1="105" x2="200" y2="105" stroke="#64748b" stroke-width="2" marker-end="url(#m)"/>
  <line x1="276" y1="105" x2="292" y2="105" stroke="#64748b" stroke-width="2" marker-end="url(#m)"/>
  <line x1="356" y1="105" x2="372" y2="105" stroke="#64748b" stroke-width="2" marker-end="url(#m)"/>
  <text x="220" y="165" text-anchor="middle" font-size="10.5" fill="#334155">gwave farm dashboard လည်း ဒီပုံစံအတိုင်း — sensor ကနေ ဖုန်းထိ</text>
  <text x="220" y="32" text-anchor="middle" font-size="13" font-weight="bold" fill="#334155">IoT Architecture — အလွှာများ</text>
</svg>
