<svg xmlns="http://www.w3.org/2000/svg" viewBox="0 0 440 190" font-family="sans-serif">
  <rect x="1" y="1" width="438" height="188" rx="14" fill="#ffffff" stroke="#e2e8f0"/>
  <text x="220" y="30" text-anchor="middle" font-size="13" font-weight="bold" fill="#334155">Motors &amp; Servos — လျှပ်စစ် → လှုပ်ရှား</text>
  <text x="118" y="56" text-anchor="middle" font-size="10.5" font-weight="bold" fill="#2563eb">DC Motor — လည်</text>
  <circle cx="118" cy="104" r="34" fill="#dbeafe" stroke="#2563eb" stroke-width="2"/>
  <path d="M118 104 L118 74 M118 104 L144 120" stroke="#2563eb" stroke-width="3"/>
  <path d="M96 82 A30 30 0 0 1 140 82" fill="none" stroke="#16a34a" stroke-width="2" marker-end="url(#m1)"/>
  <defs><marker id="m1" markerWidth="8" markerHeight="8" refX="6" refY="3" orient="auto"><path d="M0,0 L6,3 L0,6 z" fill="#16a34a"/></marker></defs>
  <text x="118" y="152" text-anchor="middle" font-size="8.5" fill="#334155">အမြဲ လည် (fan · ဘီး)</text>
  <text x="322" y="56" text-anchor="middle" font-size="10.5" font-weight="bold" fill="#d97706">Servo — ထောင့်</text>
  <rect x="286" y="80" width="72" height="48" rx="6" fill="#fef3c7" stroke="#d97706"/>
  <line x1="322" y1="104" x2="322" y2="72" stroke="#d97706" stroke-width="3"/>
  <path d="M322 76 A28 28 0 0 1 348 92" fill="none" stroke="#334155" stroke-width="1.5"/>
  <text x="360" y="82" font-size="8" fill="#92400e">90°</text>
  <text x="322" y="152" text-anchor="middle" font-size="8.5" fill="#334155">တိကျ ထောင့် (valve · arm)</text>
  <text x="220" y="178" text-anchor="middle" font-size="9.5" fill="#64748b">ရေပိုက် valve · robot လက် — PWM signal နဲ့ ထိန်း</text>
</svg>
