<svg xmlns="http://www.w3.org/2000/svg" viewBox="0 0 440 200" font-family="sans-serif">
  <rect x="1" y="1" width="438" height="198" rx="14" fill="#ffffff" stroke="#e2e8f0"/>
  <defs><marker id="pm2" markerWidth="8" markerHeight="8" refX="6" refY="3" orient="auto"><path d="M0,0 L6,3 L0,6 z" fill="#64748b"/></marker></defs>
  <text x="220" y="28" text-anchor="middle" font-size="13" font-weight="bold" fill="#334155">Project — Soil Monitor (IoT node အပြည့်)</text>
  <g font-size="8" text-anchor="middle">
    <rect x="24" y="62" width="76" height="26" rx="5" fill="#dcfce7" stroke="#16a34a"/><text x="62" y="79" fill="#166534">💧 moisture</text>
    <rect x="24" y="94" width="76" height="26" rx="5" fill="#dcfce7" stroke="#16a34a"/><text x="62" y="111" fill="#166534">🌡 temp</text>
    <rect x="24" y="126" width="76" height="26" rx="5" fill="#dcfce7" stroke="#16a34a"/><text x="62" y="143" fill="#166534">🧪 pH</text>
  </g>
  <rect x="140" y="82" width="80" height="52" rx="8" fill="#dbeafe" stroke="#2563eb"/>
  <text x="180" y="104" text-anchor="middle" font-size="9" font-weight="bold" fill="#1e40af">ESP32</text>
  <text x="180" y="120" text-anchor="middle" font-size="7.5" fill="#1e40af">ဖတ် + ပို့</text>
  <line x1="100" y1="75" x2="138" y2="92" stroke="#64748b" stroke-width="1.6" marker-end="url(#pm2)"/>
  <line x1="100" y1="107" x2="138" y2="107" stroke="#64748b" stroke-width="1.6" marker-end="url(#pm2)"/>
  <line x1="100" y1="139" x2="138" y2="122" stroke="#64748b" stroke-width="1.6" marker-end="url(#pm2)"/>
  <circle cx="285" cy="108" r="26" fill="#e0f2fe" stroke="#0284c7"/>
  <text x="285" y="104" text-anchor="middle" font-size="8" font-weight="bold" fill="#075985">☁ MQTT</text>
  <text x="285" y="116" text-anchor="middle" font-size="7.5" fill="#075985">cloud</text>
  <line x1="220" y1="108" x2="257" y2="108" stroke="#64748b" stroke-width="1.8" marker-end="url(#pm2)"/>
  <rect x="344" y="70" width="72" height="30" rx="6" fill="#fef3c7" stroke="#d97706"/><text x="380" y="89" text-anchor="middle" font-size="8" fill="#92400e">📱 chart</text>
  <rect x="344" y="112" width="72" height="30" rx="6" fill="#fee2e2" stroke="#dc2626"/><text x="380" y="131" text-anchor="middle" font-size="8" fill="#991b1b">⚠ alert</text>
  <line x1="311" y1="100" x2="342" y2="88" stroke="#64748b" stroke-width="1.6" marker-end="url(#pm2)"/>
  <line x1="311" y1="116" x2="342" y2="126" stroke="#64748b" stroke-width="1.6" marker-end="url(#pm2)"/>
  <rect x="24" y="160" width="392" height="30" rx="7" fill="#f0fdf4" stroke="#16a34a"/>
  <text x="220" y="179" text-anchor="middle" font-size="9.5" fill="#166534">သင်ယူထားသမျှ ပေါင်း — sensor + board + power + Wi-Fi + cloud + enclosure</text>
</svg>
