<svg xmlns="http://www.w3.org/2000/svg" viewBox="0 0 440 190" font-family="sans-serif">
  <rect x="1" y="1" width="438" height="188" rx="14" fill="#ffffff" stroke="#e2e8f0"/>
  <defs><marker id="so" markerWidth="8" markerHeight="8" refX="6" refY="3" orient="auto"><path d="M0,0 L6,3 L0,6 z" fill="#64748b"/></marker></defs>
  <text x="220" y="30" text-anchor="middle" font-size="13" font-weight="bold" fill="#334155">Solar Power — နေရောင်နဲ့ field node</text>
  <circle cx="55" cy="60" r="14" fill="#fde68a" stroke="#d97706"/>
  <g stroke="#d97706" stroke-width="2"><line x1="55" y1="38" x2="55" y2="30"/><line x1="75" y1="48" x2="82" y2="42"/></g>
  <rect x="30" y="82" width="70" height="40" rx="4" fill="#1e3a8a" stroke="#1e40af"/>
  <g stroke="#3b82f6" stroke-width="1"><line x1="48" y1="82" x2="48" y2="122"/><line x1="65" y1="82" x2="65" y2="122"/><line x1="82" y1="82" x2="82" y2="122"/></g>
  <text x="65" y="138" text-anchor="middle" font-size="8" fill="#334155">☀ panel</text>
  <line x1="100" y1="100" x2="132" y2="100" stroke="#64748b" stroke-width="2" marker-end="url(#so)"/>
  <rect x="136" y="80" width="70" height="40" rx="6" fill="#fef3c7" stroke="#d97706"/>
  <text x="171" y="97" text-anchor="middle" font-size="8.5" font-weight="bold" fill="#92400e">charge</text>
  <text x="171" y="111" text-anchor="middle" font-size="8" fill="#92400e">controller</text>
  <line x1="206" y1="100" x2="238" y2="100" stroke="#64748b" stroke-width="2" marker-end="url(#so)"/>
  <rect x="242" y="80" width="66" height="40" rx="6" fill="#dcfce7" stroke="#16a34a"/>
  <text x="275" y="104" text-anchor="middle" font-size="9" font-weight="bold" fill="#166534">🔋 battery</text>
  <line x1="308" y1="100" x2="340" y2="100" stroke="#64748b" stroke-width="2" marker-end="url(#so)"/>
  <rect x="344" y="80" width="66" height="40" rx="6" fill="#dbeafe" stroke="#2563eb"/>
  <text x="377" y="104" text-anchor="middle" font-size="9" font-weight="bold" fill="#1e40af">ESP32</text>
  <text x="220" y="162" text-anchor="middle" font-size="9.5" fill="#334155">လျှပ်စစ်မီး မရောက်တဲ့ လယ်ကွင်း — နေနဲ့ ၂၄/၇ မောင်း</text>
  <text x="220" y="180" text-anchor="middle" font-size="8.5" fill="#64748b">နေ့ချိန် charge · ည battery — deep sleep နဲ့ power ချွေ</text>
</svg>
