<svg xmlns="http://www.w3.org/2000/svg" viewBox="0 0 420 240" font-family="sans-serif">
  <rect x="1" y="1" width="418" height="238" rx="14" fill="#ffffff" stroke="#e2e8f0"/>
  <circle cx="230" cy="130" r="34" fill="#f8fafc" stroke="#334155" stroke-width="2"/>
  <line x1="212" y1="112" x2="212" y2="148" stroke="#334155" stroke-width="3"/>
  <line x1="212" y1="122" x2="242" y2="102" stroke="#334155" stroke-width="2"/>
  <line x1="212" y1="138" x2="242" y2="158" stroke="#334155" stroke-width="2"/>
  <polygon points="236,152 244,158 234,162" fill="#334155"/>
  <line x1="150" y1="130" x2="212" y2="130" stroke="#2563eb" stroke-width="2"/>
  <rect x="150" y="120" width="34" height="18" fill="#fef3c7" stroke="#d97706" stroke-width="1.5"/>
  <text x="100" y="134" text-anchor="end" font-size="11" fill="#2563eb" font-weight="bold">GPIO (အားနည်း)</text>
  <line x1="242" y1="102" x2="242" y2="60" stroke="#dc2626" stroke-width="2"/>
  <rect x="226" y="34" width="34" height="24" rx="4" fill="#dbeafe" stroke="#2563eb"/>
  <text x="243" y="50" text-anchor="middle" font-size="10" fill="#1e40af">Pump</text>
  <text x="290" y="52" font-size="10" fill="#dc2626" font-weight="bold">12V (အားကြီး)</text>
  <line x1="242" y1="158" x2="242" y2="200" stroke="#334155" stroke-width="2"/>
  <text x="242" y="215" text-anchor="middle" font-size="10" fill="#334155">GND</text>
  <text x="210" y="228" text-anchor="middle" font-size="10" fill="#64748b" > </text>
  <text x="120" y="190" text-anchor="middle" font-size="10.5" fill="#334155">GPIO ရဲ့ mA အနည်းက</text>
  <text x="120" y="204" text-anchor="middle" font-size="10.5" fill="#334155">12V load ကြီးကို ခလုတ်နှိပ်ပေး</text>
  <text x="210" y="26" text-anchor="middle" font-size="13" font-weight="bold" fill="#334155">Transistor — အားနည်းနဲ့ အားကြီး ထိန်း</text>
</svg>
