<svg xmlns="http://www.w3.org/2000/svg" viewBox="0 0 440 190" font-family="sans-serif">
  <rect x="1" y="1" width="438" height="188" rx="14" fill="#ffffff" stroke="#e2e8f0"/>
  <defs><marker id="vr" markerWidth="8" markerHeight="8" refX="6" refY="3" orient="auto"><path d="M0,0 L6,3 L0,6 z" fill="#64748b"/></marker></defs>
  <text x="220" y="30" text-anchor="middle" font-size="13" font-weight="bold" fill="#334155">Voltage Regulator — တည်ငြိမ် ပါဝါ</text>
  <rect x="24" y="80" width="96" height="44" rx="7" fill="#fee2e2" stroke="#dc2626"/>
  <text x="72" y="98" text-anchor="middle" font-size="9" font-weight="bold" fill="#991b1b">12V (မတည်)</text>
  <path d="M32 116 l8 -8 l8 8 l8 -6 l8 6 l8 -8 l8 8" fill="none" stroke="#dc2626" stroke-width="1.5"/>
  <line x1="120" y1="100" x2="156" y2="100" stroke="#64748b" stroke-width="2" marker-end="url(#vr)"/>
  <rect x="160" y="76" width="110" height="52" rx="7" fill="#fef3c7" stroke="#d97706"/>
  <text x="215" y="98" text-anchor="middle" font-size="10" font-weight="bold" fill="#92400e">Regulator</text>
  <text x="215" y="114" text-anchor="middle" font-size="8" fill="#92400e">7805 / buck</text>
  <line x1="270" y1="100" x2="306" y2="100" stroke="#64748b" stroke-width="2" marker-end="url(#vr)"/>
  <rect x="310" y="80" width="100" height="44" rx="7" fill="#dcfce7" stroke="#16a34a"/>
  <text x="360" y="98" text-anchor="middle" font-size="9" font-weight="bold" fill="#166534">5V (တည်ငြိမ်)</text>
  <line x1="320" y1="116" x2="400" y2="116" stroke="#16a34a" stroke-width="2"/>
  <text x="220" y="156" text-anchor="middle" font-size="10" fill="#334155">မတည်ငြိမ် voltage → တိကျ တည်ငြိမ် voltage</text>
  <text x="220" y="176" text-anchor="middle" font-size="9" fill="#64748b">MCU/sensor တွေ voltage မှန်မှ တည်ငြိမ်စွာ အလုပ်လုပ်</text>
</svg>
